<?xml version="1.0"?>
<svg xmlns="http://www.w3.org/2000/svg" id="Layer_1" enable-background="new 0 0 512 512" height="512px" viewBox="0 0 512 512" width="512px" class=""><g><g><path d="m74.269 177.88h158.648v220.356h-158.648z" fill="#80deea" data-original="#80DEEA"/><path d="m202.011 177.88h30.905v220.356h-30.905z" fill="#4dd0e1" data-original="#4DD0E1" class=""/><path d="m232.917 177.88h-158.648l10.738-39.274c.475-1.738 2.055-2.944 3.858-2.944h129.455c1.803 0 3.383 1.206 3.859 2.944z" fill="#fff6f0" data-original="#FFF6F0"/><path d="m218.32 135.662h-27.852l11.543 42.218h30.905l-10.738-39.274c-.475-1.738-2.055-2.944-3.858-2.944z" fill="#f0e7dd" data-original="#F0E7DD"/><path d="m383.758 402.218h-.031c-36.405 0-65.916-29.512-65.916-65.916v-187.376c0-36.405 29.512-65.916 65.916-65.916h.031c36.405 0 65.916 29.512 65.916 65.916v187.375c0 36.405-29.512 65.917-65.916 65.917z" fill="#cf7c38" data-original="#CF7C38" class=""/><path d="m383.743 83.01c-5.324 0-10.494.648-15.453 1.838 28.955 6.954 50.479 32.988 50.479 64.063v187.406c0 31.075-21.524 57.109-50.479 64.063 4.958 1.191 10.129 1.838 15.453 1.838 36.413 0 65.932-29.505 65.932-65.901v-187.406c-.001-36.396-29.52-65.901-65.932-65.901z" fill="#bf6c34" data-original="#BF6C34" class=""/><g><g fill="#f0aa57"><path d="m404.353 165.386h-41.222c-8.53 0-15.446-6.915-15.446-15.446 0-8.53 6.915-15.446 15.446-15.446h41.222c8.53 0 15.446 6.915 15.446 15.446 0 8.531-6.915 15.446-15.446 15.446z" data-original="#F0AA57" class=""/><path d="m404.353 227.168h-41.222c-8.53 0-15.446-6.915-15.446-15.446 0-8.53 6.915-15.446 15.446-15.446h41.222c8.53 0 15.446 6.915 15.446 15.446 0 8.531-6.915 15.446-15.446 15.446z" data-original="#F0AA57" class=""/><path d="m404.353 288.951h-41.222c-8.53 0-15.446-6.915-15.446-15.446 0-8.53 6.915-15.446 15.446-15.446h41.222c8.53 0 15.446 6.915 15.446 15.446 0 8.53-6.915 15.446-15.446 15.446z" data-original="#F0AA57" class=""/><path d="m404.353 350.733h-41.222c-8.53 0-15.446-6.915-15.446-15.446 0-8.53 6.915-15.446 15.446-15.446h41.222c8.53 0 15.446 6.915 15.446 15.446 0 8.53-6.915 15.446-15.446 15.446z" data-original="#F0AA57" class=""/></g></g><path d="m297.223 367.208h-.031c-36.405 0-65.916-29.512-65.916-65.916v-187.376c0-36.405 29.512-65.916 65.916-65.916h.031c36.405 0 65.916 29.512 65.916 65.916v187.375c0 36.405-29.512 65.917-65.916 65.917z" fill="#cf7c38" data-original="#CF7C38" class=""/><path d="m297.207 48c-5.324 0-10.494.648-15.453 1.838 28.955 6.954 50.479 32.988 50.479 64.063v187.406c0 31.075-21.524 57.109-50.479 64.063 4.959 1.191 10.129 1.838 15.453 1.838 36.413 0 65.932-29.505 65.932-65.901v-187.406c0-36.396-29.519-65.901-65.932-65.901z" fill="#bf6c34" data-original="#BF6C34" class=""/><g><g fill="#f0aa57"><path d="m317.818 130.376h-41.222c-8.53 0-15.446-6.915-15.446-15.446 0-8.53 6.915-15.446 15.446-15.446h41.222c8.53 0 15.446 6.915 15.446 15.446 0 8.531-6.916 15.446-15.446 15.446z" data-original="#F0AA57" class=""/><path d="m317.818 192.158h-41.222c-8.53 0-15.446-6.915-15.446-15.446 0-8.53 6.915-15.446 15.446-15.446h41.222c8.53 0 15.446 6.915 15.446 15.446 0 8.531-6.916 15.446-15.446 15.446z" data-original="#F0AA57" class=""/><path d="m317.818 253.941h-41.222c-8.53 0-15.446-6.915-15.446-15.446 0-8.53 6.915-15.446 15.446-15.446h41.222c8.53 0 15.446 6.915 15.446 15.446 0 8.53-6.916 15.446-15.446 15.446z" data-original="#F0AA57" class=""/><path d="m317.818 315.723h-41.222c-8.53 0-15.446-6.915-15.446-15.446 0-8.53 6.915-15.446 15.446-15.446h41.222c8.53 0 15.446 6.915 15.446 15.446 0 8.531-6.916 15.446-15.446 15.446z" data-original="#F0AA57" class=""/></g></g><path d="m458.037 464h-404.074c-2.209 0-3.999-1.79-3.999-3.999v-148.397h412.072v148.397c0 2.209-1.79 3.999-3.999 3.999z" fill="#f0aa57" data-original="#F0AA57" class=""/><path d="m431.131 311.604v152.396h26.905c2.209 0 4-1.79 4-3.998v-148.398z" fill="#e19c4b" data-original="#E19C4B" class=""/><path d="m297.218 396.17h-82.436c-12.511 0-22.653-10.142-22.653-22.653 0-12.511 10.142-22.653 22.653-22.653h82.436c12.511 0 22.653 10.142 22.653 22.653 0 12.51-10.142 22.653-22.653 22.653z" fill="#43809f" data-original="#43809F" class="active-path" style="fill:#6C63FF" data-old_color="#43809f"/><g><g><g><path d="m14.647 161.048c-1.259-3.944-5.48-6.122-9.425-4.863-3.946 1.259-6.124 5.476-4.865 9.42l49.963 156.515c1.017 3.186 3.966 5.22 7.143 5.22.755 0 1.524-.115 2.282-.357 3.946-1.259 6.124-5.476 4.865-9.42z" fill="#f0aa57" data-original="#F0AA57" class=""/></g><path d="m506.778 156.185c-3.946-1.26-8.165.919-9.425 4.863l-49.963 156.515c-1.259 3.944.919 8.162 4.865 9.42.758.242 1.526.357 2.282.357 3.176 0 6.126-2.033 7.143-5.22l49.963-156.515c1.259-3.944-.919-8.161-4.865-9.42z" fill="#e19c4b" data-original="#E19C4B" class=""/></g></g></g></g> </svg>
