<?xml version="1.0"?>
<svg xmlns="http://www.w3.org/2000/svg" height="512px" viewBox="0 -9 512.11558 512" width="512px" class=""><g><path d="m414.90625 247.414062 19.457031-86.101562-19.542969-6.738281-41.300781 86.867187v.085938l-2.816406 5.886718zm0 0" fill="#ffeb3a" data-original="#FFEB3A" class=""/><path d="m501.007812 119.246094c-.175781.902344-.433593 1.785156-.765624 2.644531-10.246094 29.699219-41.761719 46.375-72.078126 38.136719-30.320312-8.238282-49.0625-38.566406-42.867187-69.371094l18.089844-4.691406c6.65625-1.691406 13.679687.761718 17.835937 6.230468l4.863282 6.398438c4.179687 5.484375 11.253906 7.910156 17.921874 6.144531l7.679688-1.964843c6.664062-1.777344 13.746094.648437 17.917969 6.144531l4.863281 6.402343c4.191406 5.46875 11.238281 7.917969 17.921875 6.226563zm0 0" fill="#ffdc00" data-original="#FFDC00" class=""/><path d="m501.007812 119.246094c-.175781.902344-.433593 1.785156-.765624 2.644531-9.757813 28.320313-39.007813 45.007813-68.351563 38.996094 20.773437-4.132813 37.792969-18.976563 44.710937-38.996094.335938-.859375.59375-1.742187.769532-2.644531l.425781-.683594c4.152344 3.171875 9.527344 4.273438 14.59375 2.984375zm0 0" fill="#fec108" data-original="#FEC108"/><path d="m501.007812 119.246094-8.617187 2.300781c-5.171875 1.324219-10.664063.15625-14.847656-3.15625-1.148438-.890625-2.179688-1.921875-3.074219-3.070313l-4.863281-6.402343c-4.171875-5.496094-11.253907-7.921875-17.917969-6.144531l-7.679688 1.964843c-.675781.183594-1.359374.324219-2.050781.425781-6.078125.777344-12.117187-1.722656-15.871093-6.570312l-4.863282-6.398438c-4.15625-5.46875-11.179687-7.921874-17.835937-6.230468l-9.726563 2.558594-8.363281 2.132812c.265625-1.707031.667969-3.386719 1.195313-5.03125.253906-.941406.511718-1.878906.851562-2.816406 6.90625-19.949219 23.851562-34.75 44.546875-38.914063 10.484375-2.207031 21.375-1.5 31.484375 2.046875 30.171875 10.390625 46.777344 42.730469 37.632812 73.304688zm0 0" fill="#c81e1e" data-original="#C81E1E" class=""/><path d="m477.542969 118.390625c-1.148438-.890625-2.179688-1.921875-3.074219-3.070313l-4.863281-6.402343c-4.171875-5.496094-11.253907-7.921875-17.917969-6.144531l-7.679688 1.964843c-.675781.183594-1.359374.324219-2.050781.425781-3.453125-2.40625-7.691406-3.410156-11.859375-2.816406-1.535156-1.023437-2.890625-2.289062-4.011718-3.753906l-4.863282-6.398438c-4.15625-5.46875-11.179687-7.921874-17.835937-6.230468l-9.726563 2.558594c-2.136718-1.503907-4.589844-2.496094-7.167968-2.898438.253906-.941406.511718-1.878906.851562-2.816406 6.90625-19.949219 23.851562-34.75 44.546875-38.914063 2.664063.472657 5.289063 1.15625 7.847656 2.046875 29.851563 10.269532 46.457031 42.09375 37.804688 72.449219zm0 0" fill="#f44335" data-original="#F44335" class=""/><path d="m76.644531 185.976562c-28.925781-10.667968-56.746093-6.402343-63.742187 10.066407-6.742188 15.957031 8.617187 38.058593 34.988281 51.371093h27.863281zm0 0" fill="#91562d" data-original="#91562D" class=""/><path d="m223.335938 148.34375-7 98.816406-149.589844.253906c-1.832032-20.980468 1.570312-42.09375 9.898437-61.4375 3.132813-7.210937 7.054688-14.050781 11.691407-20.394531 2.136718-3.003906 4.445312-5.882812 6.914062-8.621093l100.605469-24.234376c3.355469 1.285157 6.632812 2.765626 9.816406 4.4375 6.253906 3.113282 12.171875 6.859376 17.664063 11.179688zm0 0" fill="#825a2c" data-original="#825A2C"/><path d="m69.59375 61.652344c-10.449219-13.363282-29.132812-17.007813-43.835938-8.554688-14.707031 8.453125-20.960937 26.433594-14.671874 42.1875 6.285156 15.753906 23.199218 24.488282 39.683593 20.492188 2.808594-.648438 5.515625-1.683594 8.039063-3.078125zm0 0" fill="#825a2c" data-original="#825A2C"/><path d="m208.136719 76.726562c2.878906.089844 5.757812-.21875 8.554687-.917968 16.542969-3.925782 27.675782-19.429688 26.109375-36.359375-1.570312-16.933594-15.359375-30.125-32.34375-30.945313-16.984375-.820312-31.980469 10.984375-35.171875 27.6875zm0 0" fill="#825a2c" data-original="#825A2C"/><path d="m208.394531 77.804688c-8.828125-36.652344-49.414062-58.3125-90.652343-48.378907-41.234376 9.933594-67.503907 47.699219-58.675782 84.351563 8.832032 36.65625 49.417969 58.316406 90.652344 48.382812 41.238281-9.933594 67.507812-47.699218 58.675781-84.355468zm0 0" fill="#91562d" data-original="#91562D" class=""/><path d="m278.800781 200.824219h-.085937c-4.703125-.023438-8.5-3.851563-8.488282-8.554688.011719-4.707031 3.828126-8.511719 8.53125-8.511719 4.703126 0 8.523438 3.804688 8.535157 8.511719.011719 4.703125-3.789063 8.53125-8.492188 8.554688zm0 0" data-original="#000000" class=""/><path d="m371.644531 194.933594c-39.253906-13.140625-69.632812-11.605469-92.929687-2.644532-5.664063 2.148438-11.09375 4.867188-16.210938 8.105469-17.964844 11.644531-32.492187 27.875-42.070312 47.019531h-29.015625c-2.410157-8.316406-3.617188-16.9375-3.582031-25.597656-.054688-28.640625 13.027343-55.71875 35.5-73.472656 4.710937-3.808594 9.800781-7.125 15.1875-9.898438 13.335937-6.933593 28.148437-10.535156 43.179687-10.496093h2.386719c40.609375 1.023437 75.945312 28.058593 87.554687 66.984375zm0 0" fill="#ffdc00" data-original="#FFDC00" class=""/><path d="m371.644531 194.933594c-8.480469-2.875-17.148437-5.15625-25.941406-6.824219-12.417969-32.292969-41.613281-55.125-75.949219-59.394531 3.964844-.511719 7.953125-.769532 11.949219-.765625h2.386719c40.609375 1.023437 75.945312 28.058593 87.554687 66.984375zm0 0" fill="#fec108" data-original="#FEC108"/><path d="m375.570312 221.816406c.011719 6.59375-.675781 13.171875-2.050781 19.625v.085938c-.425781 1.960937-.9375 3.925781-1.535156 5.886718h-151.550781c9.578125-19.144531 24.105468-35.375 42.070312-47.019531 5.117188-3.238281 10.546875-5.957031 16.210938-8.105469 8.910156-3.390624 18.238281-5.546874 27.734375-6.398437.023437-.023437.054687-.035156.085937-.035156s.0625.011719.085938.035156c22.070312-1.617187 44.230468 1.464844 65.023437 9.042969 2.613281 8.722656 3.9375 17.777344 3.925781 26.882812zm0 0" fill="#c81e1e" data-original="#C81E1E" class=""/><path d="m351.929688 221.816406c.015624 6.59375-.671876 13.171875-2.046876 19.625v.085938c-.425781 1.960937-.9375 3.925781-1.535156 5.886718h-127.914062c9.578125-19.144531 24.105468-35.375 42.070312-47.019531 5.117188-3.238281 10.546875-5.957031 16.210938-8.105469 8.910156-3.390624 18.238281-5.546874 27.734375-6.398437.023437-.023437.054687-.035156.085937-.035156s.0625.011719.085938.035156c14.097656 1.390625 27.988281 4.429687 41.386718 9.042969 2.613282 8.722656 3.9375 17.777344 3.921876 26.882812zm0 0" fill="#f44335" data-original="#F44335" class=""/><path d="m503.570312 264.480469v136.535156c-.019531 47.121094-38.214843 85.316406-85.335937 85.332031h-324.265625c-47.121094-.015625-85.316406-38.210937-85.332031-85.332031v-136.535156c.027343-9.414063 7.652343-17.039063 17.066406-17.066407h460.800781c9.414063.027344 17.039063 7.652344 17.066406 17.066407zm0 0" fill="#0377bc" data-original="#0377BC" class="active-path" data-old_color="#0377bc" style="fill:#3F3D56"/><path d="m479.929688 264.480469v136.535156c-.015626 47.121094-38.210938 85.316406-85.332032 85.332031h-300.628906c-47.121094-.015625-85.316406-38.210937-85.332031-85.332031v-136.535156c.027343-9.414063 7.652343-17.039063 17.066406-17.066407h437.160156c9.414063.027344 17.039063 7.652344 17.066407 17.066407zm0 0" fill="#02a9f4" data-original="#02A9F4" class="" style="fill:#6C63FF" data-old_color="#02a9f4"/><path d="m8.636719 281.546875h494.933593v34.136719h-494.933593zm0 0" fill="#fec108" data-original="#FEC108"/><g fill="#ffdc00"><path d="m8.636719 281.546875h471.292969v34.136719h-471.292969zm0 0" data-original="#FFDC00" class=""/><path d="m259.964844 358.042969 10.992187 23.417969c.601563 1.289062 1.808594 2.191406 3.21875 2.40625l24.914063 3.808593c1.582031.238281 2.894531 1.34375 3.402344 2.863281.507812 1.515626.125 3.1875-.992188 4.332032l-18.296875 18.753906c-.945313.96875-1.375 2.332031-1.15625 3.667969l4.28125 26.253906c.261719 1.613281-.417969 3.234375-1.753906 4.171875-1.335938.941406-3.089844 1.039062-4.519531.25l-21.890626-12.101562c-1.285156-.710938-2.84375-.710938-4.128906 0l-21.890625 12.101562c-1.429687.789062-3.183593.691406-4.519531-.25-1.335938-.9375-2.015625-2.558594-1.753906-4.171875l4.28125-26.253906c.21875-1.335938-.210938-2.699219-1.15625-3.667969l-18.292969-18.753906c-1.117187-1.144532-1.5-2.816406-.992187-4.335938.507812-1.515625 1.824218-2.621094 3.402343-2.863281l24.917969-3.804687c1.40625-.214844 2.613281-1.117188 3.21875-2.40625l10.992188-23.417969c.703124-1.496094 2.207031-2.453125 3.859374-2.453125 1.65625.003906 3.160157.957031 3.863282 2.453125zm0 0" data-original="#FFDC00" class=""/><path d="m123.429688 358.042969 10.992187 23.417969c.605469 1.289062 1.8125 2.191406 3.21875 2.40625l24.917969 3.808593c1.582031.238281 2.894531 1.34375 3.402344 2.863281.507812 1.515626.125 3.1875-.992188 4.332032l-18.300781 18.753906c-.945313.96875-1.375 2.332031-1.15625 3.667969l4.28125 26.253906c.265625 1.613281-.417969 3.234375-1.75 4.171875-1.335938.941406-3.09375 1.039062-4.523438.25l-21.890625-12.101562c-1.28125-.710938-2.84375-.710938-4.125 0l-21.890625 12.101562c-1.429687.789062-3.1875.691406-4.523437-.25-1.335938-.9375-2.015625-2.558594-1.753906-4.171875l4.285156-26.253906c.21875-1.335938-.210938-2.699219-1.160156-3.667969l-18.289063-18.753906c-1.117187-1.144532-1.5-2.816406-.992187-4.335938.507812-1.515625 1.820312-2.621094 3.402343-2.863281l24.917969-3.804687c1.40625-.214844 2.613281-1.117188 3.214844-2.40625l10.992187-23.417969c.703125-1.496094 2.210938-2.453125 3.863281-2.453125 1.652344.003906 3.15625.957031 3.859376 2.453125zm0 0" data-original="#FFDC00" class=""/><path d="m396.496094 358.042969 10.992187 23.417969c.605469 1.289062 1.8125 2.191406 3.21875 2.40625l24.917969 3.808593c1.582031.238281 2.894531 1.34375 3.402344 2.863281.507812 1.515626.125 3.1875-.992188 4.332032l-18.296875 18.753906c-.949219.96875-1.378906 2.332031-1.160156 3.667969l4.285156 26.253906c.261719 1.613281-.417969 3.234375-1.753906 4.171875-1.335937.941406-3.09375 1.039062-4.523437.25l-21.890626-12.101562c-1.28125-.710938-2.84375-.710938-4.125 0l-21.890624 12.101562c-1.429688.789062-3.1875.691406-4.523438-.25-1.332031-.9375-2.015625-2.558594-1.75-4.171875l4.28125-26.253906c.21875-1.335938-.210938-2.699219-1.15625-3.667969l-18.292969-18.753906c-1.117187-1.144532-1.5-2.816406-.992187-4.335938.507812-1.515625 1.820312-2.621094 3.402344-2.863281l24.917968-3.804687c1.40625-.214844 2.613282-1.117188 3.21875-2.40625l10.988282-23.417969c.707031-1.496094 2.210937-2.453125 3.863281-2.453125 1.652343.003906 3.15625.957031 3.859375 2.453125zm0 0" data-original="#FFDC00" class=""/></g><path d="m418.234375 494.882812h-324.265625c-51.816406-.058593-93.808594-42.050781-93.867188-93.867187v-136.535156c.015626-14.128907 11.46875-25.582031 25.601563-25.597657h460.800781c14.128906.015626 25.582032 11.46875 25.597656 25.597657v136.535156c-.058593 51.816406-42.050781 93.808594-93.867187 93.867187zm-392.53125-238.933593c-4.710937.003906-8.53125 3.820312-8.535156 8.53125v136.535156c.046875 42.394531 34.40625 76.753906 76.800781 76.800781h324.265625c42.398437-.046875 76.753906-34.40625 76.800781-76.800781v-136.535156c-.003906-4.710938-3.820312-8.527344-8.53125-8.53125zm0 0" data-original="#000000" class=""/><path d="m129.511719 173.121094c-14.390625.058594-28.570313-3.429688-41.292969-10.15625-18.816406-9.453125-32.515625-26.71875-37.445312-47.191406-4.933594-20.472657-.597657-42.082032 11.851562-59.066407 12.75-17.96875 31.652344-30.628906 53.121094-35.578125 21.367187-5.371094 43.964844-2.707031 63.496094 7.488282 18.726562 9.570312 32.382812 26.785156 37.453124 47.191406l-.007812-.003906c4.785156 20.476562.460938 42.023437-11.851562 59.070312-12.75 17.96875-31.648438 30.628906-53.117188 35.582031-7.273438 1.757813-14.726562 2.652344-22.207031 2.664063zm8.441406-137.589844c-6.136719.007812-12.246094.742188-18.210937 2.1875-17.402344 3.980469-32.738282 14.203125-43.105469 28.734375-9.664063 12.984375-13.058594 29.589844-9.269531 45.328125 3.792968 15.734375 14.378906 28.972656 28.894531 36.128906 15.84375 8.21875 34.15625 10.335938 51.457031 5.953125 17.402344-3.972656 32.742188-14.199219 43.109375-28.730469 9.503906-13.054687 12.886719-29.585937 9.273437-45.324218h-.007812c-3.949219-15.660156-14.484375-28.839844-28.890625-36.136719-10.246094-5.402344-21.667969-8.199219-33.25-8.140625zm0 0" data-original="#000000" class=""/><path d="m42.695312 125.277344c-19.976562.011718-37.289062-13.835938-41.65625-33.328125-4.371093-19.492188 5.371094-39.40625 23.441407-47.921875 18.070312-8.515625 39.628906-3.351563 51.878906 12.425781 2.8125 3.738281 2.089844 9.046875-1.621094 11.894531-3.710937 2.851563-9.023437 2.183594-11.910156-1.496094-7.859375-9.976562-21.847656-12.667968-32.84375-6.3125-10.996094 6.351563-15.652344 19.816407-10.9375 31.605469 4.71875 11.789063 17.378906 18.320313 29.722656 15.335938 2.050781-.46875 4.027344-1.21875 5.875-2.230469 4.113281-2.300781 9.316407-.832031 11.617188 3.28125 2.300781 4.117188.832031 9.316406-3.285157 11.617188-3.207031 1.773437-6.640624 3.089843-10.207031 3.921874-3.300781.796876-6.679687 1.203126-10.074219 1.207032zm0 0" data-original="#000000" class=""/><path d="m209.210938 85.28125c-.46875 0-.933594-.007812-1.402344-.027344-2.257813-.085937-4.390625-1.066406-5.929688-2.726562-1.539062-1.660156-2.351562-3.859375-2.265625-6.121094.308594-4.644531 4.191407-8.246094 8.847657-8.207031 2.097656.074219 4.195312-.152344 6.230468-.683594 12.40625-2.929687 20.769532-14.542969 19.613282-27.242187-1.160157-12.695313-11.484376-22.605469-24.21875-23.242188-12.734376-.632812-23.996094 8.199219-26.414063 20.71875-.554687 2.996094-2.667969 5.46875-5.539063 6.488281-2.875 1.019531-6.074218.425781-8.394531-1.554687-2.316406-1.980469-3.402343-5.046875-2.847656-8.042969 3.996094-20.828125 22.703125-35.546875 43.886719-34.535156 21.183594 1.015625 38.398437 17.457031 40.386718 38.570312 1.988282 21.117188-11.855468 40.480469-32.476562 45.429688-3.101562.769531-6.28125 1.164062-9.476562 1.175781zm0 0" data-original="#000000" class=""/><path d="m135.71875 112.625c-3.941406-.007812-7.367188-2.710938-8.292969-6.542969l-1.992187-8.296875c-.710938-2.964844.214844-6.085937 2.425781-8.183594 2.214844-2.097656 5.378906-2.859374 8.300781-1.992187 2.925782.867187 5.164063 3.226563 5.875 6.191406l1.992188 8.296875c.605468 2.542969.015625 5.226563-1.601563 7.277344-1.621093 2.050781-4.09375 3.25-6.707031 3.25zm0 0" data-original="#000000" class=""/><path d="m113.378906 85.195312c0 4.714844-3.820312 8.535157-8.53125 8.535157-4.714844 0-8.535156-3.820313-8.535156-8.535157 0-4.710937 3.820312-8.53125 8.535156-8.53125 4.710938 0 8.53125 3.820313 8.53125 8.53125zm0 0" data-original="#000000" class=""/><path d="m163.15625 73.207031c0 4.710938-3.820312 8.53125-8.535156 8.53125-4.710938 0-8.53125-3.820312-8.53125-8.53125 0-4.714843 3.820312-8.535156 8.53125-8.535156 4.714844 0 8.535156 3.820313 8.535156 8.535156zm0 0" data-original="#000000" class=""/><path d="m66.734375 255.949219c-4.441406-.007813-8.136719-3.414063-8.5-7.84375-1.933594-22.390625 1.707031-44.917969 10.59375-65.5625 4.972656-11.453125 11.765625-22.027344 20.109375-31.316407 2.03125-2.316406 5.160156-3.355468 8.175781-2.714843 3.015625.636719 5.453125 2.851562 6.375 5.792969.921875 2.941406.1875 6.152343-1.921875 8.398437-7.105468 7.929687-12.886718 16.949219-17.117187 26.71875-7.753907 18.050781-10.914063 37.738281-9.199219 57.304687.183594 2.257813-.539062 4.492188-2.003906 6.21875-1.46875 1.722657-3.558594 2.792969-5.8125 2.976563-.230469.019531-.464844.027344-.699219.027344zm0 0" data-original="#000000" class=""/><path d="m223.328125 156.875c-1.902344.003906-3.746094-.632812-5.242187-1.800781-7.640626-6.035157-16.152344-10.878907-25.242188-14.363281-4.410156-1.667969-6.632812-6.589844-4.96875-11 1.667969-4.410157 6.59375-6.632813 11-4.96875 10.699219 4.097656 20.714844 9.785156 29.710938 16.871093 2.875 2.242188 4.007812 6.0625 2.820312 9.507813-1.1875 3.449218-4.433594 5.757812-8.078125 5.753906zm0 0" data-original="#000000" class=""/><path d="m47.875 255.949219c-1.332031 0-2.648438-.3125-3.839844-.917969-31.191406-15.75-47.589844-41.953125-38.992187-62.308594 8.84375-20.820312 40.890625-27.1875 74.550781-14.753906 2.898438 1.023438 5.023438 3.53125 5.558594 6.558594.535156 3.03125-.597656 6.113281-2.972656 8.070312-2.371094 1.957032-5.613282 2.484375-8.484376 1.382813-26.210937-9.664063-48.519531-5-52.941406 5.402343-4.144531 9.8125 6.515625 28.066407 30.980469 40.414063 3.53125 1.785156 5.371094 5.757813 4.453125 9.601563s-4.355469 6.554687-8.3125 6.550781zm0 0" data-original="#000000" class=""/><path d="m284.089844 136.480469h-.082032c-4.707031-.023438-8.5-3.851563-8.488281-8.554688s3.828125-8.511719 8.53125-8.511719c4.707031 0 8.523438 3.808594 8.535157 8.511719.011718 4.703125-3.785157 8.53125-8.488282 8.554688zm0 0" data-original="#000000" class=""/><path d="m278.800781 200.824219h-.085937c-4.703125-.023438-8.5-3.851563-8.488282-8.554688.011719-4.707031 3.828126-8.511719 8.53125-8.511719 4.703126 0 8.523438 3.804688 8.535157 8.511719.011719 4.703125-3.789063 8.53125-8.492188 8.554688zm0 0" data-original="#000000" class=""/><path d="m371.984375 255.953125c-2.703125-.003906-5.246094-1.289063-6.855469-3.464844s-2.089844-4.980469-1.304687-7.570312c.484375-1.59375.910156-3.191407 1.261719-4.785157.023437-.164062.058593-.320312.089843-.476562 5.285157-24.824219-.742187-50.714844-16.449219-70.648438-15.710937-19.9375-39.46875-31.855468-64.839843-32.527343h-2.183594c-13.648437-.027344-27.101563 3.242187-39.21875 9.527343-4.875 2.5-9.476563 5.496094-13.738281 8.941407-20.511719 16.113281-32.453125 40.78125-32.378906 66.867187-.035157 7.84375 1.054687 15.652344 3.234374 23.1875.933594 2.945313.199219 6.164063-1.914062 8.414063-2.113281 2.253906-5.28125 3.1875-8.277344 2.441406-3-.746094-5.359375-3.050781-6.175781-6.03125-2.644531-9.101563-3.96875-18.535156-3.933594-28.011719-.101562-31.257812 14.1875-60.824218 38.742188-80.164062 5.125-4.144532 10.664062-7.753906 16.527343-10.769532 14.558594-7.554687 30.726563-11.488281 47.132813-11.46875h2.304687c55.644532 1.265626 100.097657 46.738282 100.09375 102.402344.019532 7.042969-.703124 14.074219-2.148437 20.96875-.027344.1875-.058594.371094-.09375.546875-.472656 2.195313-1.039063 4.386719-1.714844 6.578125-1.097656 3.585938-4.410156 6.039063-8.160156 6.042969zm0 0" data-original="#000000" class=""/><path d="m220.425781 255.949219c-2.984375-.003907-5.753906-1.566407-7.296875-4.121094-1.542968-2.558594-1.640625-5.734375-.25-8.378906 10.222656-20.539063 25.824219-37.925781 45.140625-50.308594 5.570313-3.53125 11.488281-6.484375 17.65625-8.820313 28.132813-10.832031 61.355469-9.984374 98.675781 2.523438 2.933594.9375 5.132813 3.378906 5.761719 6.390625.628907 3.011719-.414062 6.128906-2.730469 8.160156-2.316406 2.027344-5.542968 2.652344-8.445312 1.632813-33.476562-11.210938-62.820312-12.136719-87.148438-2.773438-5.136718 1.941406-10.058593 4.398438-14.695312 7.335938-16.75 10.792968-30.261719 25.925781-39.097656 43.789062-1.476563 2.8125-4.394532 4.570313-7.570313 4.570313zm0 0" data-original="#000000" class=""/><path d="m443.878906 170.664062c-34.789062.078126-64.09375-25.976562-68.082031-60.535156-3.992187-34.558594 18.601563-66.605468 52.492187-74.457031 33.890626-7.851563 68.277344 10.992187 79.890626 43.785156 11.617187 32.792969-3.242188 69.078125-34.519532 84.308594-9.28125 4.515625-19.460937 6.875-29.78125 6.898437zm-.101562-119.527343c-26.089844.007812-48 19.628906-50.886719 45.558593-2.882813 25.925782 14.183594 49.878907 39.632813 55.625 25.449218 5.742188 51.148437-8.5625 59.679687-33.21875 5.394531-15.65625 2.890625-32.957031-6.71875-46.445312-9.609375-13.492188-25.144531-21.503906-41.707031-21.519531zm0 0" data-original="#000000" class=""/><path d="m370.695312 255.949219c-2.933593-.003907-5.65625-1.507813-7.21875-3.988281-1.558593-2.480469-1.738281-5.585938-.476562-8.230469l2.527344-5.261719c.082031-.234375.175781-.464844.28125-.691406l41.304687-86.867188c1.304688-2.753906 3.984375-4.601562 7.023438-4.847656 3.039062-.242188 5.976562 1.152344 7.707031 3.664062 1.730469 2.511719 1.992188 5.753907.683594 8.507813l-41.007813 86.25c-.09375.246094-.191406.492187-.300781.726563l-2.816406 5.886718c-1.421875 2.96875-4.417969 4.855469-7.707032 4.851563zm0 0" data-original="#000000" class=""/><path d="m414.917969 255.949219c-.636719 0-1.269531-.070313-1.890625-.210938-4.59375-1.042969-7.476563-5.605469-6.441406-10.203125l19.449218-86.101562c.671875-2.972656 2.878906-5.363282 5.789063-6.269532 2.914062-.90625 6.085937-.1875 8.328125 1.878907 2.238281 2.070312 3.203125 5.175781 2.53125 8.152343l-19.449219 86.097657c-.875 3.886719-4.328125 6.652343-8.316406 6.65625zm0 0" data-original="#000000" class=""/><path d="m488.019531 130.597656c-7.992187 0-15.523437-3.742187-20.34375-10.117187l-4.847656-6.375c-2.074219-2.761719-5.613281-3.988281-8.949219-3.097657l-7.75 2.019532c-10 2.621094-20.59375-1.042969-26.835937-9.28125l-4.855469-6.386719c-2.078125-2.75-5.609375-3.972656-8.945312-3.097656l-18.066407 4.691406c-2.972656.835937-6.164062-.003906-8.347656-2.191406-2.179687-2.1875-3.007813-5.382813-2.164063-8.351563.84375-2.972656 3.226563-5.257812 6.230469-5.972656l18.058594-4.695312c9.992187-2.605469 20.574219 1.058593 26.816406 9.289062l4.859375 6.382812c2.078125 2.75 5.613282 3.972657 8.949219 3.097657l7.75-2.023438c10.003906-2.613281 20.59375 1.054688 26.839844 9.292969l4.84375 6.371094c2.078125 2.75 5.613281 3.972656 8.949219 3.09375l8.640624-2.253906c2.953126-.765626 6.085938.097656 8.226563 2.269531s2.960937 5.316406 2.152344 8.257812c-.8125 2.9375-3.128907 5.222657-6.078125 5.992188l-8.640625 2.253906c-2.121094.550781-4.300781.832031-6.492188.832031zm0 0" data-original="#000000" class=""/><path d="m503.570312 324.214844h-494.933593c-4.714844 0-8.535157-3.820313-8.535157-8.53125v-34.136719c0-4.710937 3.820313-8.53125 8.535157-8.53125h494.933593c4.710938 0 8.53125 3.820313 8.53125 8.53125v34.136719c0 4.710937-3.820312 8.53125-8.53125 8.53125zm-486.402343-17.066406h477.867187v-17.066407h-477.867187zm0 0" data-original="#000000" class=""/><path d="m287.742188 460.75c-1.441407 0-2.859376-.367188-4.125-1.066406l-27.515626-15.210938-27.515624 15.210938c-2.859376 1.578125-6.371094 1.386718-9.042969-.496094-2.671875-1.878906-4.03125-5.121094-3.507813-8.347656l5.351563-32.800782-22.59375-23.152343c-2.234375-2.289063-3-5.636719-1.984375-8.667969 1.015625-3.035156 3.640625-5.246094 6.800781-5.730469l30.875-4.714843 13.890625-29.582032c1.40625-2.996094 4.417969-4.910156 7.726562-4.910156 3.308594 0 6.320313 1.914062 7.726563 4.910156l13.890625 29.582032 30.875 4.714843c3.160156.484375 5.789062 2.695313 6.800781 5.730469 1.015625 3.03125.25 6.378906-1.984375 8.667969l-22.589844 23.152343 5.347657 32.800782c.402343 2.472656-.296875 4.996094-1.921875 6.902344-1.621094 1.910156-4 3.007812-6.503906 3.007812zm-31.640626-34.5625c1.445313 0 2.863282.367188 4.125 1.066406l16.269532 8.988282-3.214844-19.703126c-.433594-2.671874.425781-5.394531 2.316406-7.332031l14-14.351562-18.957031-2.894531c-2.8125-.433594-5.226563-2.238282-6.433594-4.8125l-8.105469-17.253907-8.097656 17.253907c-1.210937 2.574218-3.621094 4.378906-6.433594 4.8125l-18.960937 2.894531 14 14.351562c1.894531 1.9375 2.753906 4.660157 2.316406 7.332031l-3.21875 19.703126 16.265625-8.984376c1.265625-.703124 2.683594-1.070312 4.128906-1.070312zm0 0" data-original="#000000" class=""/><path d="m151.210938 460.75c-1.445313 0-2.863282-.367188-4.125-1.066406l-27.515626-15.210938-27.519531 15.210938c-2.859375 1.578125-6.371093 1.386718-9.039062-.496094-2.671875-1.878906-4.035157-5.121094-3.507813-8.347656l5.347656-32.800782-22.589843-23.152343c-2.234375-2.289063-3-5.636719-1.988281-8.667969 1.015624-3.035156 3.640624-5.246094 6.804687-5.730469l30.875-4.714843 13.890625-29.582032c1.40625-2.996094 4.417969-4.910156 7.726562-4.910156 3.308594 0 6.316407 1.914062 7.722657 4.910156l13.890625 29.582032 30.878906 4.714843c3.160156.484375 5.785156 2.695313 6.800781 5.730469 1.015625 3.03125.246094 6.378906-1.984375 8.667969l-22.59375 23.152343 5.351563 32.800782c.402343 2.472656-.300781 4.996094-1.921875 6.902344-1.621094 1.910156-4 3.007812-6.503906 3.007812zm-31.640626-34.5625c1.441407 0 2.863282.367188 4.125 1.066406l16.269532 8.988282-3.21875-19.703126c-.433594-2.671874.425781-5.394531 2.316406-7.332031l14-14.351562-18.957031-2.894531c-2.8125-.433594-5.222657-2.238282-6.433594-4.8125l-8.101563-17.253907-8.101562 17.253907c-1.207031 2.574218-3.621094 4.378906-6.433594 4.8125l-18.957031 2.894531 14 14.351562c1.890625 1.9375 2.75 4.660157 2.316406 7.332031l-3.21875 19.703126 16.265625-8.984376c1.261719-.703124 2.683594-1.070312 4.128906-1.070312zm0 0" data-original="#000000" class=""/><path d="m424.277344 460.75c-1.445313 0-2.863282-.367188-4.125-1.066406l-27.515625-15.210938-27.519531 15.210938c-2.859376 1.578125-6.371094 1.386718-9.039063-.496094-2.671875-1.878906-4.035156-5.121094-3.507813-8.347656l5.347657-32.800782-22.589844-23.152343c-2.234375-2.289063-3-5.636719-1.988281-8.667969 1.015625-3.035156 3.640625-5.246094 6.804687-5.730469l30.875-4.714843 13.890625-29.582032c1.40625-2.996094 4.417969-4.910156 7.726563-4.910156 3.308593 0 6.320312 1.914062 7.722656 4.910156l13.894531 29.582032 30.875 4.714843c3.160156.484375 5.785156 2.695313 6.800782 5.730469 1.015624 3.03125.246093 6.378906-1.984376 8.667969l-22.59375 23.152343 5.351563 32.800782c.402344 2.472656-.300781 4.996094-1.921875 6.902344-1.621094 1.910156-4 3.007812-6.503906 3.007812zm-31.640625-34.5625c1.441406 0 2.863281.367188 4.125 1.066406l16.269531 8.988282-3.21875-19.703126c-.433594-2.671874.425781-5.394531 2.316406-7.332031l14-14.351562-18.957031-2.894531c-2.8125-.433594-5.222656-2.238282-6.433594-4.8125l-8.101562-17.253907-8.101563 17.253907c-1.207031 2.574218-3.621094 4.378906-6.433594 4.8125l-18.957031 2.894531 14 14.351562c1.890625 1.9375 2.75 4.660157 2.316407 7.332031l-3.21875 19.703126 16.265624-8.984376c1.261719-.703124 2.683594-1.070312 4.128907-1.070312zm0 0" data-original="#000000" class=""/></g> </svg>
