<svg height="512" viewBox="0 0 64 64" width="512" xmlns="http://www.w3.org/2000/svg"><g id="flat"><path d="m29 10a2 2 0 0 1 2-2h18a2 2 0 0 1 2 2v3h2l2-2a2.828 2.828 0 0 1 4 0 2.828 2.828 0 0 1 0 4l-2 2 2 2v42h-30z" fill="#4da19a"/><path d="m29 20h30v18h-30z" fill="#98ecb7"/><path d="m9 3h12v8h-12z" fill="#ffd782"/><path d="m7 11h16v4h-16z" fill="#f9bb4b"/><path d="m12 3h2v5h-2z" fill="#f9bb4b"/><path d="m16 3h2v5h-2z" fill="#f9bb4b"/><path d="m27 19h-6v-4h-12v4l-3 3-2 34 5 5h22v-27l-7-7h-2a2 2 0 0 1 0-4h4l9 9v6h4v-8z" fill="#e33e5c"/><path d="m17 36h24v6h-24z" fill="#2d75bb"/><path d="m19 42h20v4h-20z" fill="#4f97d5"/><g fill="#6caade"><path d="m17 46h24v15h-24z"/><path d="m20 36h2v3h-2z"/><path d="m24 36h2v3h-2z"/><path d="m28 36h2v3h-2z"/><path d="m32 36h2v3h-2z"/><path d="m36 36h2v3h-2z"/></g><path d="m17 36h10l-5-5h-1a5 5 0 0 1 -5-5h-6l-2 28 3 3h6v-11h2v-4h-2z" fill="#b11e48"/><path d="m10 21h2v2h-2z" fill="#f98c96"/><path d="m14 21h2v2h-2z" fill="#f98c96"/><path d="m25 50h16v7h-16z" fill="#f4f4e6"/><path d="m20 56h2v2h-2z" fill="#f4f4e6"/><path d="m20 52h2v2h-2z" fill="#f4f4e6"/><path d="m43 24h3a3 3 0 0 1 3 3v1a0 0 0 0 1 0 0h-3a3 3 0 0 1 -3-3v-1a0 0 0 0 1 0 0z" fill="#8ec13f"/><path d="m52 26h3a0 0 0 0 1 0 0v1a3 3 0 0 1 -3 3h-3a0 0 0 0 1 0 0v-1a3 3 0 0 1 3-3z" fill="#fcf05a" transform="matrix(-1 0 0 -1 104 56)"/><path d="m49 30h3a3 3 0 0 1 3 3v1a0 0 0 0 1 0 0h-3a3 3 0 0 1 -3-3v-1a0 0 0 0 1 0 0z" fill="#8ec13f" transform="matrix(-1 0 0 -1 104 64)"/><path d="m46 28h3a0 0 0 0 1 0 0v1a3 3 0 0 1 -3 3h-3a0 0 0 0 1 0 0v-1a3 3 0 0 1 3-3z" fill="#55b56a"/><path d="m34 17h-2v-5a1 1 0 0 1 1-1h4v2h-3z" fill="#f4f4e6"/><path d="m39 11h2v2h-2z" fill="#f4f4e6"/><path d="m43 11h2v2h-2z" fill="#f4f4e6"/><path d="m55 58h-3v-2h2v-3h2v4a1 1 0 0 1 -1 1z" fill="#f4f4e6"/><path d="m41 38h18v4h-18z" fill="#8ec13f"/><path d="m39 42h20v4h-20z" fill="#98ecb7"/><path d="m41 46h18v4h-18z" fill="#8ec13f"/></g></svg>