<?xml version="1.0"?>
<svg xmlns="http://www.w3.org/2000/svg" id="icons" enable-background="new 0 0 64 64" height="512px" viewBox="0 0 64 64" width="512px" class=""><g><g><g><g><path d="m13 28.995v34l-8-8v-34z" fill="#ccd1d9" data-original="#CCD1D9"/></g><g><path d="m26.02 1.005h12c-.01 3.311-2.689 5.99-6 5.99-3.32 0-5.99-2.68-6-5.99z" fill="#545c66" data-original="#545C66"/></g><g><path d="m19.99 28.976v.019h-6.99l-8-8h14.99z" fill="#aab2bd" data-original="#AAB2BD"/></g><g><path d="m19.99 14.025-4.99 1.97-4-9 11.03-5.99h3.989c.011 3.311 2.681 5.99 6 5.99 3.311 0 5.99-2.68 6-5.99h3.95l11.031 5.99-4 9-5.03-1.99v6.99 7.98.02h-23.98v-.02-7.98z" fill="#656d78" data-original="#656D78"/></g><g><path d="m59 28.995h-15.03v-.019-7.981h7.03z" fill="#aab2bd" data-original="#AAB2BD"/></g><g><path d="m59 28.995v34h-46v-34h6.99 23.98zm-7.99 24.01v-14h-30v14z" fill="#e6e9ed" data-original="#E6E9ED" class=""/></g><g><path d="m32.51 43.005c.83 0 1.5.67 1.5 1.5s-.67 1.5-1.5 1.5h-.5-1v-3z" fill="#a0d468" data-original="#A0D468" class="active-path" data-old_color="#a0d468" style="fill:#3F3D56"/></g><g><path d="m32.51 46.005c.83 0 1.5-.67 1.5-1.5s-.67-1.5-1.5-1.5h-1.5v3h1zm18.5-7v14h-30v-14z" fill="#a0d468" data-original="#A0D468" class="active-path" data-old_color="#a0d468" style="fill:#3F3D56"/></g></g><g><g><g><path d="m25.01 50.009c-.553 0-1-.447-1-1v-6c0-.553.447-1 1-1s1 .447 1 1v6c0 .553-.447 1-1 1z" fill="#e6e9ed" data-original="#E6E9ED" class=""/></g><g><path d="m28.01 44.009h-3c-.553 0-1-.447-1-1s.447-1 1-1h3c.553 0 1 .447 1 1s-.447 1-1 1z" fill="#e6e9ed" data-original="#E6E9ED" class=""/></g><g><path d="m27.01 47.009h-2c-.553 0-1-.447-1-1s.447-1 1-1h2c.553 0 1 .447 1 1s-.447 1-1 1z" fill="#e6e9ed" data-original="#E6E9ED" class=""/></g><g><path d="m31.01 50.009c-.553 0-1-.447-1-1v-6c0-.553.447-1 1-1s1 .447 1 1v6c0 .553-.447 1-1 1z" fill="#e6e9ed" data-original="#E6E9ED" class=""/></g><g><path d="m34.011 50.009c-.323 0-.641-.156-.833-.445l-2-3c-.307-.46-.183-1.08.277-1.387.46-.306 1.08-.183 1.387.277l2 3c.307.46.183 1.08-.277 1.387-.171.113-.364.168-.554.168z" fill="#e6e9ed" data-original="#E6E9ED" class=""/></g><g><path d="m32.51 47.009c-.553 0-1-.447-1-1s.447-1 1-1c.275 0 .5-.225.5-.5s-.225-.5-.5-.5c-.553 0-1-.447-1-1s.447-1 1-1c1.379 0 2.5 1.121 2.5 2.5s-1.121 2.5-2.5 2.5z" fill="#e6e9ed" data-original="#E6E9ED" class=""/></g><g><path d="m32.51 47.009h-1.5c-.553 0-1-.447-1-1s.447-1 1-1h1.5c.553 0 1 .447 1 1s-.447 1-1 1z" fill="#e6e9ed" data-original="#E6E9ED" class=""/></g><g><path d="m32.51 44.009h-1.5c-.553 0-1-.447-1-1s.447-1 1-1h1.5c.553 0 1 .447 1 1s-.447 1-1 1z" fill="#e6e9ed" data-original="#E6E9ED" class=""/></g><g><path d="m37.51 50.009c-.553 0-1-.447-1-1v-6c0-.553.447-1 1-1s1 .447 1 1v6c0 .553-.447 1-1 1z" fill="#e6e9ed" data-original="#E6E9ED" class=""/></g><g><path d="m40.51 50.009h-3c-.553 0-1-.447-1-1s.447-1 1-1h3c.553 0 1 .447 1 1s-.447 1-1 1z" fill="#e6e9ed" data-original="#E6E9ED" class=""/></g><g><path d="m40.51 44.009h-3c-.553 0-1-.447-1-1s.447-1 1-1h3c.553 0 1 .447 1 1s-.447 1-1 1z" fill="#e6e9ed" data-original="#E6E9ED" class=""/></g><g><path d="m39.51 47.009h-2c-.553 0-1-.447-1-1s.447-1 1-1h2c.553 0 1 .447 1 1s-.447 1-1 1z" fill="#e6e9ed" data-original="#E6E9ED" class=""/></g><g><path d="m44.01 50.009c-.553 0-1-.447-1-1v-6c0-.553.447-1 1-1s1 .447 1 1v6c0 .553-.447 1-1 1z" fill="#e6e9ed" data-original="#E6E9ED" class=""/></g><g><path d="m47.01 50.009h-3c-.553 0-1-.447-1-1s.447-1 1-1h3c.553 0 1 .447 1 1s-.447 1-1 1z" fill="#e6e9ed" data-original="#E6E9ED" class=""/></g><g><path d="m47.01 44.009h-3c-.553 0-1-.447-1-1s.447-1 1-1h3c.553 0 1 .447 1 1s-.447 1-1 1z" fill="#e6e9ed" data-original="#E6E9ED" class=""/></g><g><path d="m46.01 47.009h-2c-.553 0-1-.447-1-1s.447-1 1-1h2c.553 0 1 .447 1 1s-.447 1-1 1z" fill="#e6e9ed" data-original="#E6E9ED" class=""/></g></g></g></g></g> </svg>
