<svg width="320" height="113" viewBox="0 0 320 113" fill="none" xmlns="http://www.w3.org/2000/svg">
<g clip-path="url(#clip0)">
<g clip-path="url(#clip1)">
<path d="M54.623 23.9104C55.7268 23.9104 56.6215 23.0157 56.6215 21.9119V12.9985C56.6215 11.8948 55.7268 11 54.623 11C53.5193 11 52.6246 11.8948 52.6246 12.9985V21.9119C52.6248 23.0157 53.5195 23.9104 54.623 23.9104Z" fill="#6C63FF"/>
<path d="M103.473 79.6568L99.9429 76.1363C98.687 74.8819 97.0131 74.191 95.2296 74.191C94.0891 74.191 92.9944 74.4747 92.0242 75.0064L85.3713 68.3614L85.6954 68.0378C88.3944 65.3335 88.3934 60.939 85.6952 58.2439C84.731 57.2779 83.5278 56.6337 82.2164 56.3627C82.3969 55.7394 82.492 55.0865 82.492 54.4184C82.492 52.562 81.7709 50.8213 80.4655 49.5213C79.5011 48.5553 78.2982 47.9112 76.9867 47.6401C77.1673 47.0168 77.2623 46.3641 77.2623 45.6958C77.2623 43.8392 76.5412 42.0987 75.2337 40.7967C74.2463 39.8105 73.0324 39.1862 71.7579 38.9205C72.4397 36.5696 71.8571 33.9246 70.0076 32.072C68.4681 30.5391 66.3792 29.8802 64.366 30.0938L51.1828 27.5984C49.1722 27.217 46.6613 26.9648 45.0764 28.4104C44.9764 28.5017 44.8744 28.6067 44.774 28.7235C42.3165 27.8278 39.4503 28.3612 37.4824 30.3269C36.1768 31.6309 35.4577 33.3708 35.4577 35.2262C35.4577 35.8945 35.5524 36.5472 35.7327 37.1707C34.4226 37.4415 33.2211 38.0849 32.2601 39.0477C30.952 40.3505 30.2306 42.0884 30.2292 43.9416C30.2286 44.6115 30.3237 45.2664 30.5051 45.8915C29.1944 46.1617 27.992 46.8039 27.028 47.7667C25.7199 49.0734 24.9996 50.8143 24.9996 52.6687C24.9996 54.0891 25.4237 55.4423 26.2095 56.5853C25.2173 56.9217 24.3084 57.4815 23.5474 58.2417C20.8467 60.939 20.8457 65.3337 23.5492 68.042L23.8721 68.3634L17.2184 75.005C14.7457 73.8407 11.699 74.2769 9.6585 76.3149L6.1259 79.8375C4.86938 81.0925 4.17763 82.7665 4.17743 84.551C4.17743 86.3358 4.86938 88.01 6.1259 89.2652L10.5346 93.6685C11.3155 94.4486 12.5809 94.4478 13.3608 93.6669C14.1408 92.8861 14.14 91.6206 13.3592 90.8408L8.95047 86.4374C8.45001 85.9375 8.17438 85.2676 8.17438 84.5513C8.17438 83.8351 8.45001 83.1654 8.94928 82.6667L12.4821 79.1438C13.3647 78.2621 14.7157 78.1308 15.7416 78.7441C15.8139 78.8527 15.8974 78.9559 15.9931 79.0517C16.1643 79.2234 16.3598 79.3549 16.5673 79.4512L36.8265 99.6806C36.9228 99.8904 37.0549 100.088 37.2274 100.26C37.3952 100.429 37.5867 100.558 37.7899 100.654C38.2184 101.139 38.4551 101.757 38.4551 102.417C38.4551 103.134 38.1795 103.803 37.679 104.303L34.1498 107.828C33.107 108.867 31.4107 108.866 30.3711 107.831L25.9624 103.422C25.182 102.642 23.9167 102.642 23.1362 103.422C22.3558 104.203 22.3558 105.468 23.1362 106.249L27.5481 110.661C28.8467 111.954 30.5521 112.6 32.2583 112.6C33.9648 112.6 35.6722 111.953 36.9724 110.659L40.5038 107.131C41.7603 105.876 42.4523 104.202 42.4523 102.417C42.4523 101.143 42.098 99.9271 41.4394 98.8781L48.9277 91.399C48.9356 91.3908 48.9436 91.3827 48.9517 91.3746C49.8092 90.4881 52.197 90.654 54.5062 90.8144C56.1469 90.9285 57.9761 91.0553 59.7632 90.8493L67.9635 99.0398C67.4323 100.008 67.1487 101.102 67.1487 102.24C67.1487 104.023 67.8407 105.696 69.0972 106.952L72.6288 110.479C73.8845 111.733 75.5584 112.424 77.3419 112.424C79.1253 112.424 80.7991 111.733 82.055 110.479L103.475 89.0852C104.731 87.8302 105.423 86.1562 105.423 84.3715C105.423 82.5869 104.731 80.9129 103.473 79.6568ZM50.4386 31.5255L59.1078 33.1664L53.9188 38.3534C53.1161 37.9676 52.016 37.2481 50.8091 36.0935C49.1571 34.5132 47.9754 32.6885 47.8678 31.5505C47.8676 31.5499 47.8676 31.5493 47.8676 31.5487C47.8676 31.5485 47.8674 31.5483 47.8674 31.5481C47.8597 31.4664 47.8577 31.4011 47.8587 31.3513C48.1201 31.2878 48.8142 31.2173 50.4386 31.5255ZM40.3067 33.1549C41.3192 32.1434 42.892 32.0267 44.036 32.8015C44.6843 35.5197 47.0031 37.9833 48.0462 38.9814C48.8194 39.7212 51.3 41.9392 53.8039 42.5488C54.1427 43.0343 54.327 43.6132 54.327 44.224C54.327 45.0108 54.0244 45.7464 53.4729 46.2973C52.9231 46.8481 52.1863 47.1513 51.3981 47.1513C50.6097 47.1513 49.8729 46.8481 49.3204 46.2947L49.3202 46.2945L49.3192 46.2935L40.3065 37.2971C39.7571 36.7484 39.4544 36.0128 39.4544 35.2262C39.4546 34.4394 39.7573 33.7038 40.3067 33.1549ZM35.0846 41.8757C35.6345 41.325 36.3705 41.0216 37.1575 41.0216C37.9455 41.0216 38.6839 41.3256 39.2374 41.8784L46.4947 49.1212C47.6375 50.2658 47.6375 52.1284 46.4986 53.269C45.9458 53.8197 45.2064 54.1229 44.4168 54.1229C43.6272 54.1229 42.8878 53.8197 42.3374 53.2714L42.3372 53.2712L36.8315 47.7667C36.823 47.7582 36.8136 47.7502 36.8049 47.7415L35.0824 46.0198C34.5298 45.4678 34.2256 44.7308 34.2262 43.9446C34.227 43.1609 34.5302 42.4277 35.0846 41.8757ZM29.8526 50.5946C30.4029 50.0452 31.1405 49.7425 31.9299 49.7425C32.7127 49.7425 33.4439 50.0408 33.9918 50.5808L39.5144 56.1007C40.065 56.6492 40.3685 57.384 40.3685 58.1698C40.3685 58.9555 40.065 59.6903 39.5122 60.2409C38.9621 60.7902 38.2253 61.0928 37.4373 61.0928C36.6481 61.0928 35.9089 60.7894 35.3581 60.2409L33.356 58.2413C33.3556 58.2407 33.355 58.2403 33.3546 58.2399L29.8528 54.7422C29.3007 54.1907 28.9967 53.4541 28.9967 52.6683C28.9967 51.8827 29.3007 51.1459 29.8526 50.5946ZM26.372 61.0694C26.9246 60.5174 27.6632 60.2134 28.4516 60.2134C29.2398 60.2134 29.9782 60.5172 30.5307 61.0688L32.5355 63.0713C33.0864 63.6198 33.3896 64.3546 33.3896 65.1404C33.3896 65.9262 33.0862 66.6608 32.5313 67.2137C31.9815 67.7643 31.2446 68.0678 30.4564 68.0678C29.6681 68.0678 28.9312 67.7645 28.3774 67.2097L28.1264 66.9597C28.123 66.9563 28.1204 66.9527 28.1173 66.9496C28.1135 66.946 28.1095 66.9428 28.1057 66.9392L26.374 65.2142C25.2312 64.069 25.2302 62.2098 26.372 61.0694ZM67.0983 83.7823C66.3183 83.0012 65.0528 83.0006 64.2722 83.7805L62.4942 85.5563C60.8046 87.2458 57.7433 87.0331 54.7828 86.8277C51.5679 86.6043 48.2435 86.3737 46.0922 88.5823L38.7311 95.9345L20.3234 77.5537L26.8377 71.0511C27.9145 71.7111 29.1569 72.0649 30.4568 72.0649C32.314 72.0649 34.0555 71.345 35.3563 70.0418C36.6658 68.7377 37.3871 66.9972 37.3871 65.1406C37.3871 65.1233 37.3859 65.1063 37.3859 65.089C37.4032 65.0892 37.4205 65.0902 37.4377 65.0902C39.2923 65.0902 41.0324 64.3724 42.335 63.0715C43.6445 61.7673 44.3658 60.0266 44.3658 58.1702C44.3658 58.153 44.3646 58.1359 44.3646 58.1186C44.3821 58.1186 44.3995 58.1198 44.4172 58.1198C46.2712 58.1198 48.0123 57.4029 49.3236 56.0969C50.6849 54.7335 51.3582 52.9384 51.3453 51.1471C51.3631 51.1473 51.381 51.1483 51.3989 51.1483C53.256 51.1481 54.9973 50.4284 56.3001 49.1232C57.6056 47.8193 58.3248 46.0794 58.3248 44.224C58.3248 42.9264 57.9719 41.6859 57.3141 40.6114L63.0238 34.9041C63.4492 34.4804 63.9739 34.2145 64.5238 34.1048C64.5833 34.0984 64.6421 34.0889 64.7002 34.0774C65.5825 33.9558 66.509 34.228 67.1837 34.8999C68.3265 36.0447 68.3265 37.9073 67.1878 39.0479L65.4489 40.7797C65.4431 40.7854 65.437 40.7906 65.4312 40.7963L63.4284 42.7958C62.6474 43.5757 62.6466 44.8411 63.4266 45.622C64.2069 46.403 65.4721 46.4036 66.2528 45.6238L67.9986 43.8803C67.999 43.8799 67.9994 43.8795 67.9998 43.8791L68.2637 43.6162C69.4097 42.4807 71.2663 42.4831 72.4111 43.6263C72.962 44.1748 73.2654 44.9096 73.2654 45.6954C73.2654 46.481 72.962 47.2158 72.4068 47.7687L70.6579 49.5211C70.6577 49.5213 70.6575 49.5215 70.6573 49.5219L68.6547 51.5164C67.8726 52.2953 67.87 53.5607 68.6489 54.3426C69.4278 55.1246 70.693 55.127 71.4751 54.3483L73.4869 52.3447C74.0367 51.7938 74.7735 51.4906 75.5617 51.4906C76.3501 51.4906 77.0871 51.7938 77.641 52.3486C78.1918 52.8973 78.495 53.6321 78.495 54.418C78.495 55.2036 78.1918 55.9384 77.6378 56.4901L74.1512 59.978C73.371 60.7587 73.3712 62.0239 74.1516 62.8042C74.542 63.1943 75.0531 63.3892 75.5645 63.3892C76.0761 63.3892 76.5877 63.1939 76.9778 62.8036L78.6865 61.0942C78.6963 61.0849 78.7068 61.0768 78.7165 61.067C79.2664 60.5162 80.0032 60.213 80.7914 60.213C81.5798 60.213 82.3166 60.5162 82.8684 61.069C84.0101 62.2094 84.0091 64.0688 82.8684 65.2114L81.1311 66.9468C81.1305 66.9474 81.1297 66.948 81.1291 66.9486C81.1285 66.9492 81.1279 66.95 81.1273 66.9505L78.3698 69.7047C77.589 70.4847 77.5882 71.7502 78.368 72.531C78.7584 72.9218 79.2703 73.1172 79.7821 73.1172C80.2931 73.1172 80.8043 72.9224 81.1944 72.5328L82.5432 71.1856L89.0077 77.6426L70.6016 96.0264L64.0067 89.4394C64.4664 89.1437 64.9064 88.796 65.3193 88.3831L67.0963 86.6083C67.8776 85.8286 67.8784 84.5632 67.0983 83.7823ZM100.65 86.2572L79.2303 107.651C78.7292 108.151 78.0585 108.427 77.3417 108.427C76.625 108.427 75.9542 108.151 75.453 107.651L71.9214 104.123C71.4209 103.624 71.1453 102.955 71.1453 102.24C71.1453 101.526 71.4209 100.857 71.9214 100.357L93.341 78.9638C93.8423 78.4632 94.5128 78.1875 95.2298 78.1875C95.9465 78.1875 96.6172 78.4632 97.1197 78.965L100.65 82.4855C101.151 82.9854 101.426 83.6549 101.426 84.3713C101.426 85.0878 101.15 85.7576 100.65 86.2572Z" fill="#3F3D56"/>
<path d="M28.0861 22.2257C28.4762 22.615 28.987 22.8095 29.4978 22.8095C30.0097 22.8095 30.5219 22.6138 30.9122 22.2227C31.6919 21.4414 31.6907 20.1762 30.9095 19.3965L23.6272 12.1287C22.8461 11.349 21.5807 11.35 20.801 12.1315C20.0213 12.9127 20.0225 14.178 20.8038 14.9576L28.0861 22.2257Z" fill="#6C63FF"/>
<path d="M79.7484 22.8095C80.2593 22.8095 80.7705 22.6146 81.1607 22.2251L88.4374 14.9571C89.2183 14.1772 89.219 12.9118 88.439 12.1309C87.6591 11.3501 86.3939 11.3493 85.6128 12.1293L78.3361 19.3973C77.5552 20.1772 77.5544 21.4426 78.3345 22.2235C78.7248 22.6142 79.2366 22.8095 79.7484 22.8095Z" fill="#6C63FF"/>
<path d="M16.4657 96.9644C15.692 97.7514 15.7027 99.0169 16.4899 99.7906L16.4957 99.7961C16.884 100.178 17.3882 100.368 17.8923 100.368C18.4096 100.368 18.9269 100.168 19.3189 99.7691C20.0926 98.9821 20.0789 97.7139 19.2919 96.9402C18.5051 96.1665 17.2398 96.1774 16.4657 96.9644Z" fill="#3F3D56"/>
<path d="M71.9862 80.9034C72.2902 80.9034 72.5986 80.8341 72.8881 80.6883C73.8736 80.1912 74.2694 78.9894 73.7725 78.004C73.2755 77.0185 72.0735 76.6224 71.0883 77.1195L71.0772 77.1251C70.0917 77.6222 69.7014 78.8211 70.1983 79.8066C70.5491 80.5027 71.2548 80.9034 71.9862 80.9034Z" fill="#3F3D56"/>
</g>
<path d="M185.126 78H178.095V63.375H164.384V78H157.353V43.875H164.384V57.7031H178.095V43.875H185.126V78ZM202.517 78.4688C198.798 78.4688 195.767 77.3281 193.423 75.0469C191.095 72.7656 189.931 69.7266 189.931 65.9297V65.2734C189.931 62.7266 190.423 60.4531 191.407 58.4531C192.392 56.4375 193.782 54.8906 195.579 53.8125C197.392 52.7188 199.454 52.1719 201.767 52.1719C205.235 52.1719 207.962 53.2656 209.946 55.4531C211.946 57.6406 212.946 60.7422 212.946 64.7578V67.5234H196.798C197.017 69.1797 197.673 70.5078 198.767 71.5078C199.876 72.5078 201.274 73.0078 202.962 73.0078C205.571 73.0078 207.61 72.0625 209.079 70.1719L212.407 73.8984C211.392 75.3359 210.017 76.4609 208.282 77.2734C206.548 78.0703 204.626 78.4688 202.517 78.4688ZM201.743 57.6562C200.399 57.6562 199.306 58.1094 198.462 59.0156C197.634 59.9219 197.103 61.2188 196.868 62.9062H206.29V62.3672C206.259 60.8672 205.853 59.7109 205.071 58.8984C204.29 58.0703 203.181 57.6562 201.743 57.6562ZM223.962 78H217.165V42H223.962V78ZM252.392 65.5547C252.392 69.4609 251.501 72.5938 249.72 74.9531C247.954 77.2969 245.564 78.4688 242.548 78.4688C239.985 78.4688 237.915 77.5781 236.337 75.7969V87.75H229.564V52.6406H235.845L236.079 55.125C237.72 53.1562 239.86 52.1719 242.501 52.1719C245.626 52.1719 248.056 53.3281 249.79 55.6406C251.524 57.9531 252.392 61.1406 252.392 65.2031V65.5547ZM245.618 65.0625C245.618 62.7031 245.196 60.8828 244.353 59.6016C243.524 58.3203 242.314 57.6797 240.72 57.6797C238.595 57.6797 237.134 58.4922 236.337 60.1172V70.5C237.165 72.1719 238.642 73.0078 240.767 73.0078C244.001 73.0078 245.618 70.3594 245.618 65.0625ZM268.282 78.4688C264.564 78.4688 261.532 77.3281 259.189 75.0469C256.86 72.7656 255.696 69.7266 255.696 65.9297V65.2734C255.696 62.7266 256.189 60.4531 257.173 58.4531C258.157 56.4375 259.548 54.8906 261.345 53.8125C263.157 52.7188 265.22 52.1719 267.532 52.1719C271.001 52.1719 273.728 53.2656 275.712 55.4531C277.712 57.6406 278.712 60.7422 278.712 64.7578V67.5234H262.564C262.782 69.1797 263.439 70.5078 264.532 71.5078C265.642 72.5078 267.04 73.0078 268.728 73.0078C271.337 73.0078 273.376 72.0625 274.845 70.1719L278.173 73.8984C277.157 75.3359 275.782 76.4609 274.048 77.2734C272.314 78.0703 270.392 78.4688 268.282 78.4688ZM267.509 57.6562C266.165 57.6562 265.071 58.1094 264.228 59.0156C263.399 59.9219 262.868 61.2188 262.634 62.9062H272.056V62.3672C272.024 60.8672 271.618 59.7109 270.837 58.8984C270.056 58.0703 268.946 57.6562 267.509 57.6562ZM281.524 65.0859C281.524 62.5703 282.009 60.3281 282.978 58.3594C283.946 56.3906 285.337 54.8672 287.149 53.7891C288.978 52.7109 291.095 52.1719 293.501 52.1719C296.923 52.1719 299.712 53.2188 301.868 55.3125C304.04 57.4062 305.251 60.25 305.501 63.8438L305.548 65.5781C305.548 69.4688 304.462 72.5938 302.29 74.9531C300.118 77.2969 297.204 78.4688 293.548 78.4688C289.892 78.4688 286.97 77.2969 284.782 74.9531C282.61 72.6094 281.524 69.4219 281.524 65.3906V65.0859ZM288.298 65.5781C288.298 67.9844 288.751 69.8281 289.657 71.1094C290.564 72.375 291.86 73.0078 293.548 73.0078C295.189 73.0078 296.47 72.3828 297.392 71.1328C298.314 69.8672 298.774 67.8516 298.774 65.0859C298.774 62.7266 298.314 60.8984 297.392 59.6016C296.47 58.3047 295.173 57.6562 293.501 57.6562C291.845 57.6562 290.564 58.3047 289.657 59.6016C288.751 60.8828 288.298 62.875 288.298 65.5781Z" fill="#3F3D56"/>
</g>
<defs>
<clipPath id="clip0">
<rect width="1440" height="1024" fill="white" transform="translate(-133 -42)"/>
</clipPath>
<clipPath id="clip1">
<rect width="101.601" height="101.601" fill="white" transform="translate(4 11)"/>
</clipPath>
</defs>
</svg>
