<svg id="Capa_1" enable-background="new 0 0 512 512" height="512" viewBox="0 0 512 512" width="512" xmlns="http://www.w3.org/2000/svg"><g><path d="m126.959 512c-9.771 0-17.691-7.921-17.691-17.691v-17.691h35.382v17.691c0 9.77-7.92 17.691-17.691 17.691z" fill="#5e54ac"/><path d="m385.041 512c9.771 0 17.691-7.921 17.691-17.691v-17.691h-35.382v17.691c0 9.77 7.92 17.691 17.691 17.691z" fill="#5e54ac"/><path d="m89.496 330.927v-268.488c0-34.484 27.955-62.439 62.439-62.439h208.13c34.484 0 62.439 27.955 62.439 62.439v268.488z" fill="#e49824"/><path d="m360.065 0h-29.138c34.484 0 62.439 27.955 62.439 62.439v112.708c0 5.785-2.407 11.31-6.651 15.24-17.657 16.349-28.731 39.705-28.731 65.613v74.927h64.52v-268.488c0-34.484-27.955-62.439-62.439-62.439z" fill="#df8621"/><path d="m154.016 256v74.927h-64.52v-160.85c37.228 10.839 64.52 45.243 64.52 85.923z" fill="#df8621"/><path d="m126.959 330.927h258.081v145.691h-258.081z" fill="#eab14d"/><path d="m360.065 330.927h24.976v145.691h-24.976z" fill="#e7a52e"/><path d="m126.959 379.491h258.081v48.564h-258.081z" fill="#e49824"/><path d="m360.065 379.49h24.976v48.564h-24.976z" fill="#df8621"/><path d="m126.959 330.927v-31.22c0-17.242 13.977-31.22 31.22-31.22h195.642c17.242 0 31.22 13.977 31.22 31.22v31.22z" fill="#f1cb86"/><path d="m64.52 193.561c-34.484 0-62.439 27.955-62.439 62.439 0 29.465 20.416 54.147 47.87 60.712v118.28c0 22.989 18.637 41.626 41.626 41.626h35.382v-220.618c0-34.484-27.955-62.439-62.439-62.439z" fill="#eab14d"/><path d="m64.52 193.561c-3.548 0-7.021.311-10.407.88 29.528 4.957 52.033 30.622 52.033 61.559v220.618h20.813v-220.618c0-34.484-27.955-62.439-62.439-62.439z" fill="#e7a52e"/><circle cx="64.52" cy="256" fill="#f1cb86" r="16.65"/><path d="m509.919 256c0-34.484-27.955-62.439-62.439-62.439s-62.439 27.955-62.439 62.439v220.618h35.382c22.989 0 41.626-18.637 41.626-41.626v-118.28c27.453-6.565 47.87-31.247 47.87-60.712z" fill="#eab14d"/><path d="m465.199 196.127c14.549 11.432 23.906 29.173 23.906 49.112 0 25.045-14.75 46.633-36.033 56.579-7.3 3.411-11.836 10.884-11.836 18.941v114.233c0 22.989-18.637 41.626-41.626 41.626h20.813c22.989 0 41.626-18.637 41.626-41.626v-118.28c27.454-6.565 47.87-31.247 47.87-60.712 0-28.327-18.869-52.233-44.72-59.873z" fill="#e7a52e"/><circle cx="447.48" cy="256" fill="#f1cb86" r="16.65"/><g fill="#eab14d"><g><circle cx="256" cy="64.52" r="9.366"/><circle cx="301.789" cy="64.52" r="9.366"/><circle cx="210.211" cy="64.52" r="9.366"/></g><g><circle cx="256" cy="147.772" r="9.366"/><circle cx="301.789" cy="147.772" r="9.366"/><circle cx="210.211" cy="147.772" r="9.366"/></g><g><circle cx="278.894" cy="110.309" r="9.366"/><circle cx="324.683" cy="110.309" r="9.366"/><circle cx="233.106" cy="110.309" r="9.366"/><circle cx="187.317" cy="110.309" r="9.366"/></g></g><path d="m94.617 317.609c-1.709-3.91-6.264-5.697-10.174-3.986-6.909 3.018-14.272 4.549-21.882 4.549-4.281 0-8.538-.498-12.658-1.473.016.004.032.009.048.013v15.778c4.144.752 8.37 1.136 12.61 1.136 9.754 0 19.197-1.966 28.069-5.843 3.911-1.709 5.696-6.263 3.987-10.174z" fill="#e7a52e"/><path d="m417.383 317.609c1.709-3.91 6.264-5.697 10.174-3.986 6.909 3.018 14.272 4.549 21.882 4.549 4.281 0 8.538-.498 12.658-1.473-.016.004-.032.009-.048.013v15.778c-4.144.752-8.37 1.136-12.61 1.136-9.754 0-19.197-1.966-28.069-5.843-3.911-1.709-5.696-6.263-3.987-10.174z" fill="#e7a52e"/></g></svg>